<?xml version="1.0" standalone="no"?>
<!DOCTYPE svg PUBLIC "-//W3C//DTD SVG 20010904//EN"
 "http://www.w3.org/TR/2001/REC-SVG-20010904/DTD/svg10.dtd">
<svg version="1.0" xmlns="http://www.w3.org/2000/svg"
 width="500.000000pt" height="500.000000pt" viewBox="0 0 500.000000 500.000000"
 preserveAspectRatio="xMidYMid meet">
<metadata>
Created by potrace 1.14, written by Peter Selinger 2001-2017
</metadata>
<g transform="translate(0.000000,500.000000) scale(0.100000,-0.100000)"
fill="#000000" stroke="none">
<path d="M1235 4445 c-120 -27 -156 -91 -122 -215 16 -58 23 -161 33 -502 l6
-207 -317 0 c-301 -1 -319 -2 -350 -21 -69 -43 -65 42 -65 -1285 0 -1187 0
-1197 20 -1230 44 -71 -78 -66 1712 -67 1551 0 1610 1 1640 19 18 10 40 32 50
49 17 29 18 100 18 1211 l1 1181 42 7 c23 4 51 9 62 11 11 2 61 7 110 10 50 3
107 7 128 8 43 4 43 4 51 -70 l6 -52 -54 -22 c-80 -32 -148 -101 -173 -175
-31 -94 -30 -166 3 -222 31 -54 68 -91 103 -105 14 -5 65 -11 115 -14 50 -2
93 -8 97 -12 4 -4 16 -54 28 -112 11 -58 24 -121 29 -140 17 -75 17 -75 -83
-74 -49 1 -103 5 -120 9 -61 13 -99 -59 -52 -103 35 -33 65 -39 184 -37 l111
1 11 -60 c18 -101 22 -137 26 -221 4 -71 7 -83 30 -103 30 -25 53 -28 81 -8
16 12 19 26 18 93 -1 82 -10 175 -25 257 -5 27 -9 52 -9 56 0 4 21 13 48 19
61 16 125 53 147 87 32 49 16 240 -29 348 -29 70 -105 113 -213 121 -36 2 -67
6 -68 7 -4 6 -55 267 -55 285 0 16 7 18 56 15 36 -3 57 -9 61 -18 6 -17 56
-19 84 -3 28 14 41 54 28 82 -19 41 -64 59 -160 65 -49 2 -89 8 -90 11 0 3 -2
15 -4 26 -14 72 -12 101 11 130 32 43 39 92 17 134 -25 48 -64 74 -110 74 -85
-1 -296 -13 -312 -17 -9 -3 -38 -7 -64 -10 -27 -3 -52 -8 -55 -10 -4 -2 -26
-7 -49 -11 -32 -4 -50 -1 -85 18 -58 33 -310 132 -411 162 -45 13 -154 49
-242 79 -147 51 -411 132 -461 142 -12 2 -84 22 -160 45 -76 22 -177 51 -225
64 -47 13 -141 46 -210 73 -68 27 -185 68 -259 92 -74 23 -198 62 -275 87
-177 58 -199 62 -260 48z m313 -341 c192 -59 349 -112 394 -133 71 -32 481
-160 566 -176 61 -11 365 -103 502 -152 85 -31 184 -64 220 -74 177 -49 213
-47 -841 -47 l-976 -1 -1 192 c-1 106 -4 205 -8 222 -8 36 -13 197 -7 208 3 5
11 6 19 3 8 -3 67 -22 132 -42z m2049 -1881 l-2 -1038 -1456 -2 -1457 -2 0
1039 -1 1040 1459 0 1458 0 -1 -1037z m696 867 c4 -25 9 -56 12 -70 10 -46 15
-75 21 -107 l5 -33 -63 4 c-35 2 -70 5 -78 5 -21 1 -50 52 -50 86 0 75 43 144
105 171 35 15 39 10 48 -56z m313 -365 c24 -15 51 -112 58 -206 4 -51 -3 -59
-75 -77 l-37 -10 -31 147 c-17 80 -31 152 -31 159 0 17 85 7 116 -13z"/>
<path d="M1656 3137 c-19 -19 -24 -38 -29 -107 -4 -47 -9 -103 -12 -125 -2
-22 -6 -95 -7 -162 -2 -68 -5 -123 -8 -123 -5 0 -171 58 -327 114 -101 36
-136 39 -167 15 -30 -23 -36 -55 -19 -91 13 -26 28 -35 77 -44 14 -2 64 -19
113 -37 48 -19 133 -49 188 -67 55 -19 104 -37 109 -41 5 -4 -15 -29 -44 -56
-110 -100 -208 -206 -221 -240 -11 -29 3 -68 30 -82 41 -22 70 -13 114 36 60
67 209 213 218 213 4 0 51 -42 104 -92 53 -51 103 -97 111 -101 11 -6 7 -15
-19 -40 -18 -18 -47 -50 -66 -72 -50 -59 -106 -118 -226 -235 -91 -88 -107
-109 -108 -137 -1 -43 27 -73 70 -73 29 0 50 17 196 163 89 89 183 186 208
215 25 28 52 52 60 52 8 0 37 -22 66 -48 29 -26 87 -76 129 -112 42 -36 87
-74 98 -86 76 -74 156 -134 180 -134 30 0 76 40 76 65 0 23 -19 57 -44 78 -12
10 -50 45 -86 76 -36 32 -81 71 -100 87 -19 16 -44 38 -56 49 -23 22 -62 55
-111 97 l-32 26 22 15 c12 9 36 27 52 42 34 30 211 193 232 213 17 17 16 62
-1 84 -7 10 -24 22 -38 27 -32 12 -63 -3 -121 -58 -23 -22 -53 -49 -67 -61
-14 -12 -47 -43 -75 -69 -27 -26 -65 -56 -83 -66 l-32 -19 -53 51 c-28 28 -80
77 -114 110 l-63 58 107 100 c59 55 117 110 130 122 29 28 30 72 3 101 -42 45
-94 25 -190 -72 -35 -36 -68 -66 -73 -66 -9 0 -2 206 10 310 3 30 6 84 6 119
0 55 -3 67 -23 83 -30 24 -66 23 -94 -5z"/>
</g>
</svg>
